Coordinates
version=1
nRows=16
nColumns=36
inDegrees=yes

Units are S.I. units (second, meters, Newtons, ...)
If the header above contains a line with 'inDegrees', this indicates whether rotational values are in degrees (yes) or radians (no).

endheader
time	pelvis_tilt	pelvis_list	pelvis_rotation	pelvis_tx	pelvis_ty	pelvis_tz	hip_flexion_r	hip_adduction_r	hip_rotation_r	knee_angle_r	knee_angle_r_beta	ankle_angle_r	subtalar_angle_r	mtp_angle_r	hip_flexion_l	hip_adduction_l	hip_rotation_l	knee_angle_l	knee_angle_l_beta	ankle_angle_l	subtalar_angle_l	mtp_angle_l	lumbar_extension	lumbar_bending	lumbar_rotation	arm_flex_r	arm_add_r	arm_rot_r	elbow_flex_r	pro_sup_r	arm_flex_l	arm_add_l	arm_rot_l	elbow_flex_l	pro_sup_l
      1.68333330	      9.14077141	      1.07525067	      2.95446214	      0.44385126	      1.25546116	     -0.05001252	    -10.37953951	     -4.52255719	     -5.00394993	      9.14105929	      0.15954158	     18.09243257	     -1.83486963	     -7.49999987	    -12.97113009	     -1.08342164	     -2.32855741	      4.61461147	      0.08054016	     13.34439531	     -2.33579346	     -7.49999987	    -13.77441041	      0.85962936	     -6.18594118	     11.02060913	    -12.93222218	     18.63204615	     18.64034573	     96.32151502	     -3.39839792	    -13.47496300	     14.19481424	     23.14373606	     98.78872811
      1.70000000	      9.08800674	      1.04837106	      2.97566064	      0.44394218	      1.25574387	     -0.04991456	    -10.27391734	     -4.45633444	     -4.95662222	      9.15134705	      0.15972114	     18.04862421	     -1.84625180	     -7.49999987	    -12.80708460	     -1.13792522	     -2.30658248	      4.68397689	      0.08175082	     13.30580490	     -2.48306828	     -7.49999987	    -13.89342890	      0.90035136	     -6.14964271	     10.96849850	    -12.65642407	     19.04140354	     18.51782095	     95.45925187	     -3.90620088	    -13.18682068	     14.98619693	     23.06789478	     98.02566558
      1.71666670	      9.01843382	      0.99704423	      2.85120194	      0.44399663	      1.25574656	     -0.04980980	    -10.11659597	     -4.36815323	     -4.53486473	      9.11006182	      0.15900057	     17.76149169	     -2.26511621	     -7.49999987	    -12.74543304	     -1.18477872	     -2.64013241	      4.59962157	      0.08027854	     13.39662345	     -2.22885624	     -7.49999987	    -13.94910769	      0.93961272	     -5.88923112	     10.88690420	    -12.87607718	     22.96284957	     18.60627493	     90.50698431	     -3.94227924	    -13.42051754	     19.73142511	     22.77852053	     92.97317302
      1.73333330	      9.02222521	      1.03277710	      2.96725663	      0.44414327	      1.25592985	     -0.04985650	    -10.12812095	     -4.38986709	     -4.83955268	      9.03521011	      0.15769417	     17.84966641	     -1.84232577	     -7.49999987	    -12.75424775	     -1.17485842	     -2.42240905	      4.54857465	      0.07938760	     13.12293113	     -2.48032627	     -7.49999987	    -14.16288411	      0.90766175	     -5.86690313	     10.59881626	    -12.73621469	     21.59111593	     18.99265398	     94.35574136	     -4.27913334	    -13.07884029	     18.31048688	     22.66669499	     96.40810894
      1.75000000	      8.98519160	      1.04689649	      2.95767262	      0.44409970	      1.25592764	     -0.04990682	    -10.06573466	     -4.38995584	     -4.78464045	      8.98771168	      0.15686516	     17.82597017	     -1.85870634	     -7.49999987	    -12.69435780	     -1.17329914	     -2.43533189	      4.56560838	      0.07968490	     13.08318928	     -2.43265245	     -7.49999987	    -14.24498190	      0.88836046	     -5.72983730	     10.55282155	    -12.68424156	     22.66520409	     18.78699049	     91.78303541	     -4.24203720	    -13.06183417	     19.71633955	     22.36517934	     93.82465922
      1.76666670	      9.00033889	      1.04352567	      2.96775977	      0.44430975	      1.25608956	     -0.04969403	    -10.04714031	     -4.36546260	     -4.75851484	      8.93518901	      0.15594847	     17.80680641	     -1.79331775	     -7.49999987	    -12.73271589	     -1.19413634	     -2.40510888	      4.51994141	      0.07888786	     12.99677529	     -2.41051363	     -7.49999987	    -14.36954186	      0.88809016	     -5.61931268	     10.49043060	    -12.96669162	     25.30219690	     18.86602115	     89.94740888	     -4.13102210	    -13.38409161	     22.84472391	     22.20538559	     91.57525592
      1.78333330	      8.99309811	      1.04579861	      2.99017516	      0.44425944	      1.25594409	     -0.04988937	     -9.99887845	     -4.34856762	     -4.76649036	      8.91839452	      0.15565535	     17.83020634	     -1.69943908	     -7.49999987	    -12.70730468	     -1.20697975	     -2.34882263	      4.52766516	      0.07902266	     12.97807063	     -2.41137107	     -7.49999987	    -14.49806926	      0.85230746	     -5.57243916	     10.22366415	    -12.80159537	     23.40354123	     18.78627093	     93.25150173	     -4.03242927	    -13.20970750	     21.61378448	     21.64981967	     94.17559803
      1.80000000	      9.01769855	      1.04444076	      2.98785817	      0.44415113	      1.25617489	     -0.04955248	     -9.99610865	     -4.33624714	     -4.64735723	      8.90588785	      0.15543707	     17.77267405	     -1.76616632	     -7.49999987	    -12.83068959	     -1.21328322	     -2.36399806	      4.39415928	      0.07669255	     12.83002499	     -2.36470699	     -7.49999987	    -14.68818034	      0.81808675	     -5.49635506	      9.95193811	    -12.86860697	     23.45749320	     18.91292858	     92.79542722	     -3.89660277	    -13.41274224	     21.58039263	     21.73529585	     93.70398239
      1.81666670	      9.10954254	      1.07340898	      3.06545706	      0.44402483	      1.25617751	     -0.04971482	    -10.09414125	     -4.34920119	     -4.67361789	      8.86382459	      0.15470292	     17.76938730	     -1.74277807	     -7.49999987	    -13.02073115	     -1.18884667	     -2.17951950	      4.28831281	      0.07484518	     12.74507858	     -2.43820267	     -7.49999987	    -14.92277296	      0.79945148	     -5.45074964	      9.70633296	    -13.04058417	     23.61259014	     19.51485410	     91.45532325	     -3.65181882	    -13.73962015	     21.64141784	     22.09325595	     92.36785743
      1.83333330	      9.03236210	      1.08912320	      3.09382518	      0.44355422	      1.25023887	     -0.04960090	     -9.97273720	     -4.36441041	     -4.66644837	      8.89032281	      0.15516540	     17.85756396	     -1.68428747	     -7.49999987	    -12.92823603	     -1.17157402	     -2.09388750	      4.37130141	      0.07629360	     12.80610403	     -2.48503308	     -7.49999987	    -14.79100124	      0.80566416	     -5.43335425	      9.87985327	    -13.10865563	     25.22974227	     18.72959418	     90.81594788	     -3.11853773	    -14.01957685	     23.20342595	     21.22923514	     91.77564348
      1.85000000	      9.00599862	      1.10765122	      3.16639334	      0.44349995	      1.25035754	     -0.04975373	     -9.91848181	     -4.39204686	     -4.72440936	      8.92617115	      0.15579108	     17.98461460	     -1.44462017	     -7.49999987	    -12.95903687	     -1.16960999	     -2.10504332	      4.35661583	      0.07603729	     12.79752076	     -2.24455436	     -7.49999987	    -14.81719656	      0.79907307	     -5.29004460	      9.65376784	    -13.23966081	     25.90734427	     18.78782235	     87.29424412	     -2.64449157	    -14.08375618	     23.49765856	     20.56638190	     88.30009134
      1.86666670	      9.08292055	      1.12584718	      3.20979460	      0.44355821	      1.25083493	     -0.04955270	     -9.98646086	     -4.36241411	     -4.57756766	      8.90206591	      0.15537036	     18.03016420	     -1.58568692	     -7.49999987	    -13.01555690	     -1.17314570	     -2.00187928	      4.45599237	      0.07777174	     12.80684313	     -2.35757161	     -7.49999987	    -15.00857752	      0.80586242	     -5.35682878	      9.79645573	    -13.12890935	     24.48483993	     18.53112217	     93.11396659	     -2.77766459	    -14.20607625	     21.08886061	     21.10788795	     94.10781671
      1.88333330	      9.14783579	      1.15629620	      3.27274543	      0.44355809	      1.25098485	     -0.04978629	    -10.05003609	     -4.36706746	     -4.57385862	      8.90979181	      0.15550520	     18.07293380	     -1.57414295	     -7.49999987	    -13.09878698	     -1.15755127	     -1.85303098	      4.52104480	      0.07890712	     12.70432009	     -2.54810548	     -7.49999987	    -15.16460723	      0.79860782	     -5.19993040	      9.57194341	    -13.24936398	     24.41575127	     18.48229323	     92.39300713	     -2.46935511	    -14.39750932	     20.90341023	     21.26346620	     93.38516986
      1.90000000	      9.25481039	      1.19094144	      3.35131797	      0.44352518	      1.25148452	     -0.04951133	    -10.15060369	     -4.37186566	     -4.49162546	      8.89679171	      0.15527831	     18.14494616	     -1.68320139	     -7.49999987	    -13.25101843	     -1.14796211	     -1.69267248	      4.54800284	      0.07937762	     12.65714903	     -2.72967386	     -7.49999987	    -15.34999990	      0.77834297	     -5.02976236	      9.58670429	    -13.36027495	     24.49265602	     18.38223842	     91.73103183	     -2.23449334	    -14.46544353	     20.74453664	     21.20632125	     92.66729330
      1.91666670	      9.28004392	      1.20005721	      3.34401403	      0.44339414	      1.25153827	     -0.04962091	    -10.16395744	     -4.36575686	     -4.45914583	      8.91759658	      0.15564142	     18.20641956	     -1.68719593	     -7.49999987	    -13.24664838	     -1.15259461	     -1.68833282	      4.65019766	      0.08116126	     12.75719993	     -2.73021698	     -7.49999987	    -15.42567648	      0.73204535	     -4.78770441	      9.42948021	    -13.51940599	     24.61536418	     18.45576567	     91.31168772	     -1.84169787	    -14.57808669	     20.59430513	     21.64956993	     92.18604040
      1.93333330	      9.26436547	      1.20449858	      3.40747336	      0.44354498	      1.25175690	     -0.04940285	    -10.13821939	     -4.33590849	     -4.41233665	      8.94081409	      0.15604664	     18.27189694	     -1.77399959	     -7.49999987	    -13.23358644	     -1.16775290	     -1.64416375	      4.68226347	      0.08172091	     12.80312844	     -2.66137257	     -7.49999987	    -15.44579513	      0.66764465	     -4.61380283	      9.27937980	    -13.69525581	     24.68216148	     18.62504165	     90.66013269	     -1.49065777	    -14.69921940	     20.46155408	     22.16411794	     91.50800863
